Coordinates
version=1
nRows=16
nColumns=40
inDegrees=yes

Units are S.I. units (second, meters, Newtons, ...)
If the header above contains a line with 'inDegrees', this indicates whether rotational values are in degrees (yes) or radians (no).

endheader
time	pelvis_tilt	pelvis_list	pelvis_rotation	pelvis_tx	pelvis_ty	pelvis_tz	hip_flexion_r	hip_adduction_r	hip_rotation_r	knee_angle_r	knee_angle_r_beta	ankle_angle_r	subtalar_angle_r	mtp_angle_r	hip_flexion_l	hip_adduction_l	hip_rotation_l	knee_angle_l	knee_angle_l_beta	ankle_angle_l	subtalar_angle_l	mtp_angle_l	lumbar_extension	lumbar_bending	lumbar_rotation	arm_flex_r	arm_add_r	arm_rot_r	elbow_flex_r	pro_sup_r	wrist_flex_r	wrist_dev_r	arm_flex_l	arm_add_l	arm_rot_l	elbow_flex_l	pro_sup_l	wrist_flex_l	wrist_dev_l
      0.96000000	     -5.06591380	      6.46630434	    -81.07380975	      0.22456797	      0.87496260	      0.90478112	     11.33085389	      6.04275168	    -17.41622771	     14.06984026	      0.24556504	     -1.38630942	      0.00000000	      0.00000000	     25.59603643	    -11.18598955	      2.52362381	     61.51572231	      1.07365190	     -4.56460192	      0.00000000	      0.00000000	     -0.04948207	      6.97477347	     -0.09661268	      2.63669068	     -9.80563247	      4.29878093	     39.62202770	     89.14242378	    -28.70009582	      4.09877427	     -5.47878374	     -9.53847787	     20.88394382	     24.28623334	     89.15934933	    -24.40219939	      3.79203631
      0.97000000	     -4.86556599	      6.53354421	    -81.30001884	      0.22333000	      0.87539675	      0.91402365	     10.40899774	      6.12485640	    -17.39490618	     13.47284386	      0.23514548	     -1.19960239	      0.00000000	      0.00000000	     26.77520693	    -10.75166491	      2.24525595	     60.49896271	      1.05590609	     -4.16618010	      0.00000000	      0.00000000	      0.04970905	      6.61195666	      0.44284730	      3.36017688	    -10.14748477	      4.29986944	     40.72909657	     89.14628762	    -28.68013124	      4.00037593	     -6.35872748	     -9.69430341	     20.48976956	     23.84086323	     89.11765584	    -24.45693821	      3.85799958
      0.98000000	     -4.35523561	      6.32806307	    -82.06138006	      0.22145158	      0.87616124	      0.92316965	      9.17038855	      6.01278169	    -16.61265720	     12.89533717	      0.22506609	     -1.01994235	      0.00000000	      0.00000000	     27.30208872	    -10.31018656	      1.28190325	     59.10441609	      1.03156666	     -3.55385257	      0.00000000	      0.00000000	     -0.37606961	      5.95424531	      1.46286807	      4.14029502	    -10.33988408	      3.68665085	     42.04735112	     89.16222327	    -28.52718629	      4.25545282	     -7.43365295	     -9.80129579	     18.59234409	     24.14061855	     89.13432916	    -24.57787850	      3.73044790
      0.99000000	     -4.08238525	      6.28437807	    -82.41651071	      0.22012852	      0.87641926	      0.93231637	      8.11518887	      6.04085094	    -16.31347363	     12.25456915	      0.21388258	     -0.87311900	      0.00000000	      0.00000000	     28.12728614	     -9.89631979	      0.75935126	     57.53994955	      1.00426157	     -3.21083102	      0.00000000	      0.00000000	     -0.48037027	      5.52340240	      2.03167517	      4.90898351	    -10.59626304	      3.44682398	     43.24999198	     89.16484794	    -28.32738840	      4.33941337	     -8.42565537	     -9.94017713	     17.44412501	     24.19388506	     89.11654313	    -24.53634119	      3.73365594
      1.00000000	     -3.86528039	      6.24069435	    -82.81345800	      0.21881559	      0.87645831	      0.94152622	      7.08228791	      6.11006247	    -16.04915668	     11.66315776	      0.20356050	     -0.66553034	      0.00000000	      0.00000000	     28.86040916	     -9.57974735	      0.16634027	     55.73876824	      0.97282503	     -2.97459854	      0.00000000	      0.00000000	     -0.57539267	      5.16113776	      2.63831174	      5.62072362	    -10.84815080	      3.12861085	     44.50478667	     89.16966644	    -28.13765298	      4.39594396	     -9.43633592	    -10.05290811	     16.22461016	     24.35605882	     89.09846233	    -24.46243491	      3.71902716
      1.01000000	     -3.65104689	      6.08935254	    -83.25916712	      0.21744669	      0.87649697	      0.95061114	      5.96898834	      6.18256195	    -15.70662491	     11.13219922	      0.19429353	     -0.45330546	      0.00000000	      0.00000000	     29.36625965	     -9.31915835	     -0.51516682	     53.66546338	      0.93663903	     -2.80163015	      0.00000000	      0.00000000	     -0.84165713	      4.80298437	      3.24889029	      6.40385776	    -11.04737430	      2.72036590	     45.72972513	     89.18006841	    -27.82675641	      4.55107355	    -10.45814603	    -10.14488019	     14.71128680	     24.72940859	     89.10323298	    -24.27973749	      3.69089978
      1.02000000	     -3.49630371	      5.86613277	    -83.66078819	      0.21623253	      0.87643192	      0.95979596	      4.77250751	      6.30241668	    -15.50040906	     10.58557983	      0.18475322	     -0.17565516	      0.00000000	      0.00000000	     29.72087239	     -9.12904741	     -1.23220221	     51.38405858	      0.89682101	     -2.68687565	      0.00000000	      0.00000000	     -1.16737073	      4.52507056	      3.77696970	      7.17932256	    -11.29270703	      2.42690442	     46.98492688	     89.18904111	    -27.24134389	      4.83096733	    -11.47362867	    -10.19915403	     13.18652692	     25.14255837	     89.11407762	    -23.84101526	      3.76684790
      1.03000000	     -3.76837257	      6.02480674	    -83.72337007	      0.21536791	      0.87547771	      0.96867672	      4.15426833	      6.76612288	    -15.60654122	     10.26378574	      0.17913685	      0.08697178	      0.00000000	      0.00000000	     30.68330341	     -9.15316642	     -1.43407736	     49.09943275	      0.85694676	     -2.58625863	      0.00000000	      0.00000000	     -0.95691647	      4.68192013	      4.00854828	      7.93455131	    -11.56760253	      2.36184095	     48.00134738	     89.18905295	    -27.20571806	      4.71573267	    -12.25108340	    -10.30168214	     12.99975995	     25.04467794	     89.07113551	    -23.82429357	      3.79626028
      1.04000000	     -3.94621326	      6.21911424	    -83.86882286	      0.21463846	      0.87435533	      0.97785993	      3.45950720	      7.13487984	    -15.63900537	      9.76170336	      0.17037386	      0.33196439	      0.00000000	      0.00000000	     31.49243446	     -9.08635793	     -1.76484870	     46.54252726	      0.81232034	     -2.44738325	      0.00000000	      0.00000000	     -0.70823711	      4.74311336	      4.34426430	      8.51744023	    -11.84611773	      2.17602030	     49.14977774	     89.18258779	    -27.17152204	      4.61280658	    -13.07696096	    -10.35644543	     12.58513993	     25.06573402	     89.04165349	    -23.82255538	      3.77763072
      1.05000000	     -3.35867025	      5.58881900	    -84.60017074	      0.21322466	      0.87458730	      0.98732127	      1.67218930	      6.83175748	    -14.89012226	      9.05290038	      0.15800292	      0.54329299	      0.00000000	      0.00000000	     30.84315862	     -8.69355300	     -3.17369192	     43.44660455	      0.75828630	     -2.29857126	      0.00000000	      0.00000000	     -1.66437393	      3.99255875	      5.13340792	      9.20662500	    -11.89709874	      1.43776549	     50.62320994	     89.19246572	    -26.18201718	      5.18797535	    -14.05663666	    -10.34676332	     10.17929492	     25.91437692	     89.10992183	    -23.23307620	      3.63191325
      1.06000000	     -3.35968591	      5.46216836	    -84.86021689	      0.21238169	      0.87373646	      0.99654913	      0.61038697	      7.02971800	    -14.72325414	      8.55657094	      0.14934034	      0.73248287	      0.00000000	      0.00000000	     31.00145791	     -8.56666211	     -3.89480767	     40.39812840	      0.70508035	     -2.11549380	      0.00000000	      0.00000000	     -1.87631185	      3.86860781	      5.49983694	      9.84658160	    -12.03294866	      0.87586385	     51.83298562	     89.19922966	    -24.84557017	      5.84644269	    -14.81735074	    -10.38904350	      9.24825441	     26.19953347	     89.12220661	    -22.30064665	      3.97004995
      1.07000000	     -3.48974874	      5.74250693	    -84.96384399	      0.21192431	      0.87208295	      1.00570851	      0.05321878	      7.28215947	    -14.69012015	      8.17129226	      0.14261595	      0.96419586	      0.00000000	      0.00000000	     31.64860476	     -8.40078348	     -4.37048932	     37.31996314	      0.65135623	     -1.98742649	      0.00000000	      0.00000000	     -1.58480941	      3.86717072	      5.82244333	     10.26721314	    -12.23626134	      0.50740362	     53.04902453	     89.19829791	    -24.75034482	      5.78130469	    -15.44919615	    -10.41110455	      8.83986727	     26.22890928	     89.12265143	    -22.27102815	      3.96423422
      1.08000000	     -3.44745689	      5.68746696	    -85.28376316	      0.21127985	      0.87091178	      1.01492785	     -0.85971490	      7.36219611	    -14.46727512	      7.87272057	      0.13740490	      1.36181308	      0.00000000	      0.00000000	     31.70590847	     -8.20921975	     -5.27361233	     33.95471820	      0.59262163	     -1.92889437	      0.00000000	      0.00000000	     -1.74374692	      3.69944846	      6.28374964	     10.80859651	    -12.38612579	      0.12876792	     54.13479874	     89.20018373	    -24.43387309	      5.84800817	    -16.02756971	    -10.41264500	      8.29167380	     26.34936564	     89.12813575	    -22.15878848	      3.87806403
      1.09000000	     -3.46701046	      5.76847970	    -85.46159633	      0.21090528	      0.86939952	      1.02418411	     -1.61124247	      7.47418369	    -14.32231508	      7.58810387	      0.13243740	      1.63313015	      0.00000000	      0.00000000	     31.89271054	     -7.94436996	     -5.98899686	     30.50011386	      0.53232741	     -1.85317765	      0.00000000	      0.00000000	     -1.72773479	      3.59689366	      6.59855120	     11.27477765	    -12.53309575	     -0.14572037	     55.18286647	     89.19579864	    -24.16787648	      5.87218699	    -16.52207899	    -10.40728238	      7.90790634	     26.31982230	     89.13243002	    -22.08921005	      3.83629138
      1.10000000	     -3.46111594	      5.84206258	    -85.68002581	      0.21061182	      0.86779322	      1.03349428	     -2.34590847	      7.54016446	    -14.22842840	      7.37226541	      0.12867030	      2.00868929	      0.00000000	      0.00000000	     31.99602420	     -7.63205179	     -6.72106373	     26.97277337	      0.47076370	     -1.90445402	      0.00000000	      0.00000000	     -1.71901134	      3.48006932	      6.93898101	     11.72082326	    -12.67547914	     -0.41982542	     56.15616328	     89.18974159	    -23.92176027	      5.87894811	    -16.96181362	    -10.39244692	      7.61422481	     26.25342282	     89.13687329	    -22.03212665	      3.79007930
      1.11000000	     -3.54563382	      6.01273901	    -85.79485215	      0.21059526	      0.86592150	      1.04265166	     -2.90688963	      7.65632822	    -14.05622267	      7.27237935	      0.12692696	      2.27286106	      0.00000000	      0.00000000	     32.21173776	     -7.28058313	     -7.15668385	     23.40534211	      0.40850028	     -1.93882665	      0.00000000	      0.00000000	     -1.61556514	      3.46249127	      7.17639530	     12.12722804	    -12.83843478	     -0.57285418	     57.11815846	     89.18731578	    -23.74561533	      5.82885101	    -17.29640255	    -10.33128780	      7.39511201	     26.10715890	     89.14060305	    -22.00698549	      3.77650293
